<?xml version="1.0" encoding="utf-8"?>
<!-- Generator: Adobe Illustrator 16.0.0, SVG Export Plug-In . SVG Version: 6.00 Build 0)  -->
<!DOCTYPE svg PUBLIC "-//W3C//DTD SVG 1.1//EN" "http://www.w3.org/Graphics/SVG/1.1/DTD/svg11.dtd">
<svg version="1.1" xmlns="http://www.w3.org/2000/svg" xmlns:xlink="http://www.w3.org/1999/xlink" x="0px" y="0px"
	 width="1190.55px" height="841.89px" viewBox="0 0 1190.55 841.89" enable-background="new 0 0 1190.55 841.89"
	 xml:space="preserve">
<g id="Layer_1" display="none">
	<g id="T7ZspM.tif" display="inline">
		
			<image overflow="visible" width="127" height="127" id="Layer_0_1_" xlink:href="E5266F5709BB166D.png"  transform="matrix(1 0 0 1 496 577.8906)">
		</image>
	</g>
	<path display="inline" fill="#5A626B" d="M1208.765,1005.391c232.473,0,420.938-188.466,420.938-420.954
		c0-232.471-188.466-420.937-420.938-420.937S787.826,351.966,787.826,584.438C787.826,816.926,976.292,1005.391,1208.765,1005.391z
		"/>
</g>
<g id="notes">
</g>
<g id="_x35_0_note">
	<g>
		<g>
			<rect y="57.25" fill="#338B42" width="83.75" height="6.75"/>
			<rect fill="#45AB48" width="83.75" height="59"/>
			<path fill="#A2D4A5" d="M60.185,30.044c-0.442-0.019-0.781-0.391-0.764-0.832c0.01-0.252,0.017-0.506,0.017-0.763
				c0-0.44,0.356-0.798,0.798-0.798c0.122,0,0.231,0.03,0.333,0.079c-0.019-0.458-0.053-0.917-0.104-1.365
				c-0.093,0.062-0.197,0.107-0.314,0.127c-0.042,0.005-0.087,0.009-0.127,0.009c-0.385,0-0.723-0.278-0.787-0.673
				c-0.04-0.251-0.086-0.503-0.134-0.75c-0.089-0.433,0.19-0.852,0.621-0.941c0.118-0.022,0.231-0.014,0.34,0.011
				c-0.144-0.592-0.316-1.17-0.519-1.736c-0.077,0.08-0.169,0.15-0.28,0.196c-0.096,0.038-0.197,0.056-0.295,0.056
				c-0.317,0-0.617-0.192-0.742-0.503c-0.092-0.233-0.193-0.465-0.297-0.697c-0.183-0.399-0.005-0.872,0.396-1.056
				c0.105-0.048,0.219-0.069,0.329-0.069c-0.27-0.537-0.568-1.059-0.89-1.562c-0.057,0.092-0.13,0.175-0.226,0.244
				c-0.139,0.096-0.298,0.141-0.455,0.141c-0.253,0-0.501-0.12-0.655-0.34c-0.147-0.211-0.295-0.418-0.449-0.619
				c-0.268-0.353-0.199-0.85,0.151-1.117c0.093-0.074,0.197-0.119,0.305-0.141c-0.385-0.463-0.792-0.905-1.219-1.328
				c-0.034,0.104-0.086,0.203-0.166,0.288c-0.158,0.173-0.374,0.262-0.59,0.262c-0.191,0-0.384-0.067-0.537-0.208
				c-0.188-0.17-0.383-0.336-0.577-0.502c-0.338-0.282-0.383-0.785-0.1-1.125c0.074-0.088,0.165-0.153,0.261-0.2
				c-0.474-0.365-0.967-0.71-1.479-1.028c-0.01,0.111-0.04,0.22-0.097,0.324c-0.147,0.257-0.417,0.401-0.695,0.401
				c-0.134,0-0.269-0.033-0.391-0.104c-0.221-0.125-0.445-0.244-0.671-0.36c-0.394-0.199-0.552-0.678-0.352-1.072
				c0.053-0.103,0.128-0.188,0.213-0.257c-0.544-0.25-1.104-0.474-1.676-0.669c0.016,0.108,0.011,0.22-0.021,0.333
				c-0.104,0.347-0.421,0.572-0.766,0.572c-0.075,0-0.152-0.008-0.228-0.031c-0.24-0.072-0.486-0.142-0.734-0.201
				c-0.429-0.106-0.689-0.539-0.582-0.966c0.028-0.116,0.084-0.219,0.156-0.307c-0.588-0.12-1.188-0.213-1.795-0.276
				c0.043,0.105,0.067,0.218,0.059,0.342c-0.028,0.423-0.376,0.747-0.793,0.747c-0.019,0-0.035,0-0.052,0
				c-0.252-0.017-0.506-0.025-0.76-0.029c-0.441-0.008-0.792-0.373-0.785-0.813c0.002-0.121,0.035-0.232,0.084-0.333
				c-0.609,0.013-1.212,0.056-1.806,0.128c0.062,0.093,0.111,0.196,0.128,0.315c0.07,0.434-0.225,0.843-0.66,0.916
				c-0.252,0.04-0.501,0.087-0.749,0.139c-0.054,0.01-0.11,0.018-0.163,0.018c-0.371,0-0.702-0.26-0.782-0.638
				c-0.023-0.114-0.016-0.23,0.01-0.338c-0.591,0.146-1.169,0.321-1.733,0.528c0.081,0.078,0.151,0.169,0.196,0.279
				c0.167,0.407-0.031,0.875-0.44,1.04c-0.233,0.097-0.465,0.198-0.693,0.301c-0.109,0.05-0.223,0.076-0.336,0.076
				c-0.3,0-0.59-0.172-0.723-0.463c-0.05-0.106-0.069-0.216-0.07-0.327c-0.535,0.273-1.056,0.576-1.559,0.9
				c0.094,0.053,0.179,0.126,0.246,0.225c0.253,0.36,0.168,0.854-0.193,1.108c-0.208,0.146-0.414,0.298-0.614,0.453
				c-0.145,0.114-0.317,0.166-0.486,0.166c-0.238,0-0.476-0.105-0.634-0.309c-0.07-0.094-0.116-0.195-0.141-0.301
				c-0.459,0.387-0.9,0.796-1.318,1.225c0.103,0.033,0.202,0.086,0.287,0.165c0.329,0.294,0.354,0.799,0.06,1.125
				c-0.169,0.191-0.336,0.384-0.499,0.578c-0.156,0.194-0.385,0.291-0.616,0.291c-0.178,0-0.358-0.058-0.505-0.18
				c-0.092-0.074-0.158-0.166-0.208-0.265c-0.363,0.477-0.703,0.974-1.018,1.486c0.11,0.012,0.22,0.038,0.326,0.096
				c0.383,0.216,0.52,0.705,0.305,1.087c-0.123,0.221-0.241,0.445-0.356,0.674c-0.139,0.281-0.422,0.442-0.714,0.442
				c-0.119,0-0.241-0.029-0.356-0.083c-0.104-0.053-0.19-0.128-0.259-0.211c-0.246,0.543-0.467,1.104-0.659,1.679
				c0.106-0.017,0.22-0.014,0.332,0.016c0.425,0.124,0.67,0.566,0.549,0.988c-0.07,0.245-0.136,0.49-0.196,0.738
				c-0.089,0.367-0.415,0.611-0.775,0.611c-0.062,0-0.126-0.004-0.188-0.021c-0.117-0.03-0.217-0.084-0.305-0.155
				c-0.117,0.586-0.206,1.183-0.266,1.783c0.106-0.04,0.22-0.063,0.34-0.047c0.441,0.025,0.776,0.399,0.751,0.843
				c-0.015,0.251-0.022,0.503-0.026,0.759c-0.004,0.438-0.362,0.789-0.798,0.789c-0.002,0-0.006,0-0.009,0
				c-0.12-0.003-0.23-0.033-0.331-0.082c0.015,0.609,0.063,1.211,0.138,1.805c0.092-0.063,0.195-0.108,0.311-0.128
				c0.443-0.074,0.848,0.216,0.922,0.649c0.043,0.253,0.092,0.502,0.146,0.751c0.091,0.434-0.182,0.856-0.613,0.949
				c-0.057,0.013-0.114,0.018-0.169,0.018c-0.062,0-0.119-0.018-0.178-0.03c0.153,0.59,0.335,1.17,0.546,1.736
				c0.076-0.083,0.167-0.155,0.278-0.201c0.409-0.166,0.875,0.027,1.043,0.433c0.096,0.236,0.198,0.465,0.306,0.694
				c0.188,0.399,0.016,0.875-0.384,1.062c-0.104,0.05-0.217,0.072-0.327,0.072c0.279,0.534,0.583,1.055,0.91,1.555
				c0.057-0.096,0.129-0.181,0.226-0.251c0.359-0.254,0.857-0.168,1.112,0.191c0.147,0.206,0.297,0.41,0.455,0.607
				c0.271,0.347,0.211,0.849-0.135,1.122c-0.094,0.072-0.199,0.113-0.306,0.138c0.388,0.46,0.801,0.899,1.234,1.315
				c0.033-0.103,0.085-0.204,0.162-0.292c0.293-0.327,0.799-0.355,1.127-0.063c0.19,0.168,0.384,0.334,0.58,0.492
				c0.341,0.28,0.395,0.784,0.115,1.124c-0.073,0.092-0.167,0.161-0.265,0.208c0.48,0.362,0.981,0.701,1.499,1.012
				c0.008-0.111,0.036-0.222,0.094-0.327c0.213-0.385,0.699-0.526,1.083-0.314c0.222,0.125,0.448,0.241,0.676,0.355
				c0.396,0.195,0.559,0.673,0.363,1.068c-0.051,0.104-0.129,0.19-0.214,0.26c0.55,0.243,1.114,0.46,1.692,0.649
				c-0.018-0.112-0.018-0.225,0.017-0.34c0.12-0.424,0.567-0.669,0.986-0.548c0.241,0.07,0.486,0.133,0.733,0.191
				c0.429,0.1,0.695,0.531,0.595,0.958c-0.028,0.118-0.086,0.219-0.158,0.307c0.59,0.113,1.19,0.2,1.8,0.254
				c-0.043-0.103-0.066-0.216-0.061-0.334c0.02-0.443,0.418-0.783,0.835-0.759c0.251,0.012,0.506,0.019,0.763,0.021
				c0.44,0,0.796,0.362,0.793,0.802c-0.001,0.121-0.033,0.229-0.079,0.333c0.612-0.021,1.214-0.073,1.808-0.15
				c-0.063-0.093-0.116-0.194-0.137-0.312c-0.077-0.436,0.214-0.848,0.647-0.924c0.251-0.045,0.5-0.096,0.749-0.147
				c0.426-0.099,0.856,0.172,0.95,0.606c0.026,0.116,0.021,0.23-0.002,0.341c0.587-0.158,1.165-0.341,1.728-0.556
				c-0.084-0.075-0.158-0.162-0.202-0.271c-0.173-0.406,0.016-0.875,0.423-1.045c0.234-0.1,0.464-0.207,0.693-0.314
				c0.396-0.188,0.874-0.019,1.064,0.377c0.051,0.107,0.072,0.216,0.074,0.328c0.537-0.282,1.054-0.59,1.558-0.923
				c-0.097-0.056-0.188-0.124-0.257-0.219c-0.26-0.354-0.178-0.855,0.178-1.112c0.207-0.151,0.409-0.304,0.608-0.461
				c0.347-0.275,0.848-0.216,1.121,0.128c0.074,0.094,0.118,0.195,0.146,0.299c0.455-0.392,0.891-0.807,1.307-1.241
				c-0.105-0.032-0.206-0.08-0.292-0.158c-0.332-0.289-0.367-0.792-0.076-1.125c0.167-0.192,0.331-0.387,0.492-0.586
				c0.277-0.345,0.779-0.398,1.124-0.124c0.091,0.076,0.158,0.166,0.208,0.265c0.358-0.482,0.69-0.987,0.999-1.504
				c-0.11-0.008-0.22-0.032-0.323-0.089c-0.388-0.21-0.533-0.694-0.322-1.082c0.12-0.224,0.237-0.451,0.348-0.68
				c0.193-0.395,0.669-0.561,1.064-0.37c0.109,0.053,0.195,0.125,0.267,0.211c0.24-0.552,0.455-1.12,0.641-1.701
				c-0.042,0.008-0.084,0.023-0.129,0.023c-0.07,0-0.144-0.011-0.214-0.031c-0.424-0.118-0.672-0.558-0.553-0.982
				c0.068-0.245,0.129-0.489,0.185-0.734c0.099-0.431,0.529-0.701,0.956-0.602c0.116,0.026,0.218,0.08,0.307,0.148
				c0.108-0.586,0.189-1.181,0.242-1.788c-0.092,0.038-0.194,0.056-0.301,0.056C60.207,30.044,60.197,30.044,60.185,30.044z"/>
			<circle fill="#A2D4A5" cx="12.5" cy="28.75" r="3.25"/>
			<circle fill="#A2D4A5" cx="70.75" cy="28.75" r="3.25"/>
			<polyline fill="none" stroke="#A2D4A5" stroke-width="3" stroke-miterlimit="10" points="23.375,5.25 5.25,5.25 5.25,52.625 
				24,52.625 			"/>
			<polyline fill="none" stroke="#A2D4A5" stroke-width="3" stroke-miterlimit="10" points="60.875,52.625 79,52.625 79,5.25 
				60.25,5.25 			"/>
			<text transform="matrix(1 0 0 1 30.8335 37.917)" fill="#338B42" font-family="'Oswald-Bold'" font-size="22">50</text>
		</g>
		<rect x="39" y="0.25" opacity="0.2" fill="#5A626B" width="43.5" height="63.5"/>
	</g>
</g>
<g id="_x32_0_note">
	<g>
		<g>
			<rect x="166.492" y="57.25" fill="#338B42" width="83.75" height="6.75"/>
			<rect x="166.492" fill="#45AB48" width="83.75" height="59"/>
			<path fill="#A2D4A5" d="M226.676,30.044c-0.442-0.019-0.781-0.391-0.764-0.832c0.01-0.252,0.017-0.506,0.017-0.763
				c0-0.44,0.356-0.798,0.798-0.798c0.122,0,0.231,0.03,0.333,0.079c-0.019-0.458-0.053-0.917-0.104-1.365
				c-0.093,0.062-0.197,0.107-0.314,0.127c-0.042,0.005-0.087,0.009-0.127,0.009c-0.385,0-0.723-0.278-0.787-0.673
				c-0.04-0.251-0.086-0.503-0.134-0.75c-0.089-0.433,0.19-0.852,0.621-0.941c0.118-0.022,0.231-0.014,0.34,0.011
				c-0.144-0.592-0.316-1.17-0.519-1.736c-0.077,0.08-0.169,0.15-0.28,0.196c-0.096,0.038-0.197,0.056-0.295,0.056
				c-0.317,0-0.617-0.192-0.742-0.503c-0.092-0.233-0.193-0.465-0.297-0.697c-0.183-0.399-0.005-0.872,0.396-1.056
				c0.105-0.048,0.219-0.069,0.329-0.069c-0.27-0.537-0.568-1.059-0.89-1.562c-0.057,0.092-0.13,0.175-0.226,0.244
				c-0.139,0.096-0.298,0.141-0.455,0.141c-0.253,0-0.501-0.12-0.655-0.34c-0.147-0.211-0.295-0.418-0.449-0.619
				c-0.268-0.353-0.199-0.85,0.151-1.117c0.093-0.074,0.197-0.119,0.305-0.141c-0.385-0.463-0.792-0.905-1.219-1.328
				c-0.034,0.104-0.086,0.203-0.166,0.288c-0.158,0.173-0.374,0.262-0.59,0.262c-0.191,0-0.384-0.067-0.537-0.208
				c-0.188-0.17-0.383-0.336-0.577-0.502c-0.338-0.282-0.383-0.785-0.1-1.125c0.074-0.088,0.165-0.153,0.261-0.2
				c-0.474-0.365-0.967-0.71-1.479-1.028c-0.01,0.111-0.04,0.22-0.097,0.324c-0.147,0.257-0.417,0.401-0.695,0.401
				c-0.134,0-0.269-0.033-0.391-0.104c-0.221-0.125-0.445-0.244-0.671-0.36c-0.394-0.199-0.552-0.678-0.352-1.072
				c0.053-0.103,0.128-0.188,0.213-0.257c-0.544-0.25-1.104-0.474-1.676-0.669c0.016,0.108,0.011,0.22-0.021,0.333
				c-0.104,0.347-0.421,0.572-0.766,0.572c-0.075,0-0.152-0.008-0.228-0.031c-0.24-0.072-0.486-0.142-0.734-0.201
				c-0.429-0.106-0.689-0.539-0.582-0.966c0.028-0.116,0.084-0.219,0.156-0.307c-0.588-0.12-1.188-0.213-1.795-0.276
				c0.043,0.105,0.067,0.218,0.059,0.342c-0.028,0.423-0.376,0.747-0.793,0.747c-0.019,0-0.035,0-0.052,0
				c-0.252-0.017-0.506-0.025-0.76-0.029c-0.441-0.008-0.792-0.373-0.785-0.813c0.002-0.121,0.035-0.232,0.084-0.333
				c-0.609,0.013-1.212,0.056-1.806,0.128c0.062,0.093,0.111,0.196,0.128,0.315c0.07,0.434-0.225,0.843-0.66,0.916
				c-0.252,0.04-0.501,0.087-0.749,0.139c-0.054,0.01-0.11,0.018-0.163,0.018c-0.371,0-0.702-0.26-0.782-0.638
				c-0.023-0.114-0.016-0.23,0.01-0.338c-0.591,0.146-1.169,0.321-1.733,0.528c0.081,0.078,0.151,0.169,0.196,0.279
				c0.167,0.407-0.031,0.875-0.44,1.04c-0.233,0.097-0.465,0.198-0.693,0.301c-0.109,0.05-0.223,0.076-0.336,0.076
				c-0.3,0-0.59-0.172-0.723-0.463c-0.05-0.106-0.069-0.216-0.07-0.327c-0.535,0.273-1.056,0.576-1.559,0.9
				c0.094,0.053,0.179,0.126,0.246,0.225c0.253,0.36,0.168,0.854-0.193,1.108c-0.208,0.146-0.414,0.298-0.614,0.453
				c-0.145,0.114-0.317,0.166-0.486,0.166c-0.238,0-0.476-0.105-0.634-0.309c-0.07-0.094-0.116-0.195-0.141-0.301
				c-0.459,0.387-0.9,0.796-1.318,1.225c0.103,0.033,0.202,0.086,0.287,0.165c0.329,0.294,0.354,0.799,0.06,1.125
				c-0.169,0.191-0.336,0.384-0.499,0.578c-0.156,0.194-0.385,0.291-0.616,0.291c-0.178,0-0.358-0.058-0.505-0.18
				c-0.092-0.074-0.158-0.166-0.208-0.265c-0.363,0.477-0.703,0.974-1.018,1.486c0.11,0.012,0.22,0.038,0.326,0.096
				c0.383,0.216,0.52,0.705,0.305,1.087c-0.123,0.221-0.241,0.445-0.356,0.674c-0.139,0.281-0.422,0.442-0.714,0.442
				c-0.119,0-0.241-0.029-0.356-0.083c-0.104-0.053-0.19-0.128-0.259-0.211c-0.246,0.543-0.467,1.104-0.659,1.679
				c0.106-0.017,0.22-0.014,0.332,0.016c0.425,0.124,0.67,0.566,0.549,0.988c-0.07,0.245-0.136,0.49-0.196,0.738
				c-0.089,0.367-0.415,0.611-0.775,0.611c-0.062,0-0.126-0.004-0.188-0.021c-0.117-0.03-0.217-0.084-0.305-0.155
				c-0.117,0.586-0.206,1.183-0.266,1.783c0.106-0.04,0.22-0.063,0.34-0.047c0.441,0.025,0.776,0.399,0.751,0.843
				c-0.015,0.251-0.022,0.503-0.026,0.759c-0.004,0.438-0.362,0.789-0.798,0.789c-0.002,0-0.006,0-0.009,0
				c-0.12-0.003-0.23-0.033-0.331-0.082c0.015,0.609,0.063,1.211,0.138,1.805c0.092-0.063,0.195-0.108,0.311-0.128
				c0.443-0.074,0.848,0.216,0.922,0.649c0.043,0.253,0.092,0.502,0.146,0.751c0.091,0.434-0.182,0.856-0.613,0.949
				c-0.057,0.013-0.114,0.018-0.169,0.018c-0.062,0-0.119-0.018-0.178-0.03c0.153,0.59,0.335,1.17,0.546,1.736
				c0.076-0.083,0.167-0.155,0.278-0.201c0.409-0.166,0.875,0.027,1.043,0.433c0.096,0.236,0.198,0.465,0.306,0.694
				c0.188,0.399,0.016,0.875-0.384,1.062c-0.104,0.05-0.217,0.072-0.327,0.072c0.279,0.534,0.583,1.055,0.91,1.555
				c0.057-0.096,0.129-0.181,0.226-0.251c0.359-0.254,0.857-0.168,1.112,0.191c0.147,0.206,0.297,0.41,0.455,0.607
				c0.271,0.347,0.211,0.849-0.135,1.122c-0.094,0.072-0.199,0.113-0.306,0.138c0.388,0.46,0.801,0.899,1.234,1.315
				c0.033-0.103,0.085-0.204,0.162-0.292c0.293-0.327,0.799-0.355,1.127-0.063c0.19,0.168,0.384,0.334,0.58,0.492
				c0.341,0.28,0.395,0.784,0.115,1.124c-0.073,0.092-0.167,0.161-0.265,0.208c0.48,0.362,0.981,0.701,1.499,1.012
				c0.008-0.111,0.036-0.222,0.094-0.327c0.213-0.385,0.699-0.526,1.083-0.314c0.222,0.125,0.448,0.241,0.676,0.355
				c0.396,0.195,0.559,0.673,0.363,1.068c-0.051,0.104-0.129,0.19-0.214,0.26c0.55,0.243,1.114,0.46,1.692,0.649
				c-0.018-0.112-0.018-0.225,0.017-0.34c0.12-0.424,0.567-0.669,0.986-0.548c0.241,0.07,0.486,0.133,0.733,0.191
				c0.429,0.1,0.695,0.531,0.595,0.958c-0.028,0.118-0.086,0.219-0.158,0.307c0.59,0.113,1.19,0.2,1.8,0.254
				c-0.043-0.103-0.066-0.216-0.061-0.334c0.02-0.443,0.418-0.783,0.835-0.759c0.251,0.012,0.506,0.019,0.763,0.021
				c0.44,0,0.796,0.362,0.793,0.802c-0.001,0.121-0.033,0.229-0.079,0.333c0.612-0.021,1.214-0.073,1.808-0.15
				c-0.063-0.093-0.116-0.194-0.137-0.312c-0.077-0.436,0.214-0.848,0.647-0.924c0.251-0.045,0.5-0.096,0.749-0.147
				c0.426-0.099,0.856,0.172,0.95,0.606c0.026,0.116,0.021,0.23-0.002,0.341c0.587-0.158,1.165-0.341,1.728-0.556
				c-0.084-0.075-0.158-0.162-0.202-0.271c-0.173-0.406,0.016-0.875,0.423-1.045c0.234-0.1,0.464-0.207,0.693-0.314
				c0.396-0.188,0.874-0.019,1.064,0.377c0.051,0.107,0.072,0.216,0.074,0.328c0.537-0.282,1.054-0.59,1.558-0.923
				c-0.097-0.056-0.188-0.124-0.257-0.219c-0.26-0.354-0.178-0.855,0.178-1.112c0.207-0.151,0.409-0.304,0.608-0.461
				c0.347-0.275,0.848-0.216,1.121,0.128c0.074,0.094,0.118,0.195,0.146,0.299c0.455-0.392,0.891-0.807,1.307-1.241
				c-0.105-0.032-0.206-0.08-0.292-0.158c-0.332-0.289-0.367-0.792-0.076-1.125c0.167-0.192,0.331-0.387,0.492-0.586
				c0.277-0.345,0.779-0.398,1.124-0.124c0.091,0.076,0.158,0.166,0.208,0.265c0.358-0.482,0.69-0.987,0.999-1.504
				c-0.11-0.008-0.22-0.032-0.323-0.089c-0.388-0.21-0.533-0.694-0.322-1.082c0.12-0.224,0.237-0.451,0.348-0.68
				c0.193-0.395,0.669-0.561,1.064-0.37c0.109,0.053,0.195,0.125,0.267,0.211c0.24-0.552,0.455-1.12,0.641-1.701
				c-0.042,0.008-0.084,0.023-0.129,0.023c-0.07,0-0.144-0.011-0.214-0.031c-0.424-0.118-0.672-0.558-0.553-0.982
				c0.068-0.245,0.129-0.489,0.185-0.734c0.099-0.431,0.529-0.701,0.956-0.602c0.116,0.026,0.218,0.08,0.307,0.148
				c0.108-0.586,0.189-1.181,0.242-1.788c-0.092,0.038-0.194,0.056-0.301,0.056C226.699,30.044,226.689,30.044,226.676,30.044z"/>
			<circle fill="#A2D4A5" cx="178.992" cy="28.75" r="3.25"/>
			<circle fill="#A2D4A5" cx="237.242" cy="28.75" r="3.25"/>
			<polyline fill="none" stroke="#A2D4A5" stroke-width="3" stroke-miterlimit="10" points="189.867,5.25 171.742,5.25 
				171.742,52.625 190.492,52.625 			"/>
			<polyline fill="none" stroke="#A2D4A5" stroke-width="3" stroke-miterlimit="10" points="227.367,52.625 245.492,52.625 
				245.492,5.25 226.742,5.25 			"/>
			<text transform="matrix(1 0 0 1 197.3252 37.917)" fill="#338B42" font-family="'Oswald-Bold'" font-size="22">20</text>
		</g>
		<rect x="205.492" y="0.25" opacity="0.2" fill="#5A626B" width="43.5" height="63.5"/>
	</g>
</g>
<g id="_x31_0_note">
	<g>
		<g>
			<rect x="332.667" y="57.25" fill="#338B42" width="83.75" height="6.75"/>
			<rect x="332.667" fill="#45AB48" width="83.75" height="59"/>
			<path fill="#A2D4A5" d="M392.851,30.044c-0.442-0.019-0.781-0.391-0.764-0.832c0.01-0.252,0.017-0.506,0.017-0.763
				c0-0.44,0.356-0.798,0.798-0.798c0.122,0,0.231,0.03,0.333,0.079c-0.019-0.458-0.053-0.917-0.104-1.365
				c-0.093,0.062-0.197,0.107-0.314,0.127c-0.042,0.005-0.087,0.009-0.127,0.009c-0.385,0-0.723-0.278-0.787-0.673
				c-0.04-0.251-0.086-0.503-0.134-0.75c-0.089-0.433,0.19-0.852,0.621-0.941c0.118-0.022,0.231-0.014,0.34,0.011
				c-0.144-0.592-0.316-1.17-0.519-1.736c-0.077,0.08-0.169,0.15-0.28,0.196c-0.096,0.038-0.197,0.056-0.295,0.056
				c-0.317,0-0.617-0.192-0.742-0.503c-0.092-0.233-0.193-0.465-0.297-0.697c-0.183-0.399-0.005-0.872,0.396-1.056
				c0.105-0.048,0.219-0.069,0.329-0.069c-0.27-0.537-0.568-1.059-0.89-1.562c-0.057,0.092-0.13,0.175-0.226,0.244
				c-0.139,0.096-0.298,0.141-0.455,0.141c-0.253,0-0.501-0.12-0.655-0.34c-0.147-0.211-0.295-0.418-0.449-0.619
				c-0.268-0.353-0.199-0.85,0.151-1.117c0.093-0.074,0.197-0.119,0.305-0.141c-0.385-0.463-0.792-0.905-1.219-1.328
				c-0.034,0.104-0.086,0.203-0.166,0.288c-0.158,0.173-0.374,0.262-0.59,0.262c-0.191,0-0.384-0.067-0.537-0.208
				c-0.188-0.17-0.383-0.336-0.577-0.502c-0.338-0.282-0.383-0.785-0.1-1.125c0.074-0.088,0.165-0.153,0.261-0.2
				c-0.474-0.365-0.967-0.71-1.479-1.028c-0.01,0.111-0.04,0.22-0.097,0.324c-0.147,0.257-0.417,0.401-0.695,0.401
				c-0.134,0-0.269-0.033-0.391-0.104c-0.221-0.125-0.445-0.244-0.671-0.36c-0.394-0.199-0.552-0.678-0.352-1.072
				c0.053-0.103,0.128-0.188,0.213-0.257c-0.544-0.25-1.104-0.474-1.676-0.669c0.016,0.108,0.011,0.22-0.021,0.333
				c-0.104,0.347-0.421,0.572-0.766,0.572c-0.075,0-0.152-0.008-0.228-0.031c-0.24-0.072-0.486-0.142-0.734-0.201
				c-0.429-0.106-0.689-0.539-0.582-0.966c0.028-0.116,0.084-0.219,0.156-0.307c-0.588-0.12-1.188-0.213-1.795-0.276
				c0.043,0.105,0.067,0.218,0.059,0.342c-0.028,0.423-0.376,0.747-0.793,0.747c-0.019,0-0.035,0-0.052,0
				c-0.252-0.017-0.506-0.025-0.76-0.029c-0.441-0.008-0.792-0.373-0.785-0.813c0.002-0.121,0.035-0.232,0.084-0.333
				c-0.609,0.013-1.212,0.056-1.806,0.128c0.062,0.093,0.111,0.196,0.128,0.315c0.07,0.434-0.225,0.843-0.66,0.916
				c-0.252,0.04-0.501,0.087-0.749,0.139c-0.054,0.01-0.11,0.018-0.163,0.018c-0.371,0-0.702-0.26-0.782-0.638
				c-0.023-0.114-0.016-0.23,0.01-0.338c-0.591,0.146-1.169,0.321-1.733,0.528c0.081,0.078,0.151,0.169,0.196,0.279
				c0.167,0.407-0.031,0.875-0.44,1.04c-0.233,0.097-0.465,0.198-0.693,0.301c-0.109,0.05-0.223,0.076-0.336,0.076
				c-0.3,0-0.59-0.172-0.723-0.463c-0.05-0.106-0.069-0.216-0.07-0.327c-0.535,0.273-1.056,0.576-1.559,0.9
				c0.094,0.053,0.179,0.126,0.246,0.225c0.253,0.36,0.168,0.854-0.193,1.108c-0.208,0.146-0.414,0.298-0.614,0.453
				c-0.145,0.114-0.317,0.166-0.486,0.166c-0.238,0-0.476-0.105-0.634-0.309c-0.07-0.094-0.116-0.195-0.141-0.301
				c-0.459,0.387-0.9,0.796-1.318,1.225c0.103,0.033,0.202,0.086,0.287,0.165c0.329,0.294,0.354,0.799,0.06,1.125
				c-0.169,0.191-0.336,0.384-0.499,0.578c-0.156,0.194-0.385,0.291-0.616,0.291c-0.178,0-0.358-0.058-0.505-0.18
				c-0.092-0.074-0.158-0.166-0.208-0.265c-0.363,0.477-0.703,0.974-1.018,1.486c0.11,0.012,0.22,0.038,0.326,0.096
				c0.383,0.216,0.52,0.705,0.305,1.087c-0.123,0.221-0.241,0.445-0.356,0.674c-0.139,0.281-0.422,0.442-0.714,0.442
				c-0.119,0-0.241-0.029-0.356-0.083c-0.104-0.053-0.19-0.128-0.259-0.211c-0.246,0.543-0.467,1.104-0.659,1.679
				c0.106-0.017,0.22-0.014,0.332,0.016c0.425,0.124,0.67,0.566,0.549,0.988c-0.07,0.245-0.136,0.49-0.196,0.738
				c-0.089,0.367-0.415,0.611-0.775,0.611c-0.062,0-0.126-0.004-0.188-0.021c-0.117-0.03-0.217-0.084-0.305-0.155
				c-0.117,0.586-0.206,1.183-0.266,1.783c0.106-0.04,0.22-0.063,0.34-0.047c0.441,0.025,0.776,0.399,0.751,0.843
				c-0.015,0.251-0.022,0.503-0.026,0.759c-0.004,0.438-0.362,0.789-0.798,0.789c-0.002,0-0.006,0-0.009,0
				c-0.12-0.003-0.23-0.033-0.331-0.082c0.015,0.609,0.063,1.211,0.138,1.805c0.092-0.063,0.195-0.108,0.311-0.128
				c0.443-0.074,0.848,0.216,0.922,0.649c0.043,0.253,0.092,0.502,0.146,0.751c0.091,0.434-0.182,0.856-0.613,0.949
				c-0.057,0.013-0.114,0.018-0.169,0.018c-0.062,0-0.119-0.018-0.178-0.03c0.153,0.59,0.335,1.17,0.546,1.736
				c0.076-0.083,0.167-0.155,0.278-0.201c0.409-0.166,0.875,0.027,1.043,0.433c0.096,0.236,0.198,0.465,0.306,0.694
				c0.188,0.399,0.016,0.875-0.384,1.062c-0.104,0.05-0.217,0.072-0.327,0.072c0.279,0.534,0.583,1.055,0.91,1.555
				c0.057-0.096,0.129-0.181,0.226-0.251c0.359-0.254,0.857-0.168,1.112,0.191c0.147,0.206,0.297,0.41,0.455,0.607
				c0.271,0.347,0.211,0.849-0.135,1.122c-0.094,0.072-0.199,0.113-0.306,0.138c0.388,0.46,0.801,0.899,1.234,1.315
				c0.033-0.103,0.085-0.204,0.162-0.292c0.293-0.327,0.799-0.355,1.127-0.063c0.19,0.168,0.384,0.334,0.58,0.492
				c0.341,0.28,0.395,0.784,0.115,1.124c-0.073,0.092-0.167,0.161-0.265,0.208c0.48,0.362,0.981,0.701,1.499,1.012
				c0.008-0.111,0.036-0.222,0.094-0.327c0.213-0.385,0.699-0.526,1.083-0.314c0.222,0.125,0.448,0.241,0.676,0.355
				c0.396,0.195,0.559,0.673,0.363,1.068c-0.051,0.104-0.129,0.19-0.214,0.26c0.55,0.243,1.114,0.46,1.692,0.649
				c-0.018-0.112-0.018-0.225,0.017-0.34c0.12-0.424,0.567-0.669,0.986-0.548c0.241,0.07,0.486,0.133,0.733,0.191
				c0.429,0.1,0.695,0.531,0.595,0.958c-0.028,0.118-0.086,0.219-0.158,0.307c0.59,0.113,1.19,0.2,1.8,0.254
				c-0.043-0.103-0.066-0.216-0.061-0.334c0.02-0.443,0.418-0.783,0.835-0.759c0.251,0.012,0.506,0.019,0.763,0.021
				c0.44,0,0.796,0.362,0.793,0.802c-0.001,0.121-0.033,0.229-0.079,0.333c0.612-0.021,1.214-0.073,1.808-0.15
				c-0.063-0.093-0.116-0.194-0.137-0.312c-0.077-0.436,0.214-0.848,0.647-0.924c0.251-0.045,0.5-0.096,0.749-0.147
				c0.426-0.099,0.856,0.172,0.95,0.606c0.026,0.116,0.021,0.23-0.002,0.341c0.587-0.158,1.165-0.341,1.728-0.556
				c-0.084-0.075-0.158-0.162-0.202-0.271c-0.173-0.406,0.016-0.875,0.423-1.045c0.234-0.1,0.464-0.207,0.693-0.314
				c0.396-0.188,0.874-0.019,1.064,0.377c0.051,0.107,0.072,0.216,0.074,0.328c0.537-0.282,1.054-0.59,1.558-0.923
				c-0.097-0.056-0.188-0.124-0.257-0.219c-0.26-0.354-0.178-0.855,0.178-1.112c0.207-0.151,0.409-0.304,0.608-0.461
				c0.347-0.275,0.848-0.216,1.121,0.128c0.074,0.094,0.118,0.195,0.146,0.299c0.455-0.392,0.891-0.807,1.307-1.241
				c-0.105-0.032-0.206-0.08-0.292-0.158c-0.332-0.289-0.367-0.792-0.076-1.125c0.167-0.192,0.331-0.387,0.492-0.586
				c0.277-0.345,0.779-0.398,1.124-0.124c0.091,0.076,0.158,0.166,0.208,0.265c0.358-0.482,0.69-0.987,0.999-1.504
				c-0.11-0.008-0.22-0.032-0.323-0.089c-0.388-0.21-0.533-0.694-0.322-1.082c0.12-0.224,0.237-0.451,0.348-0.68
				c0.193-0.395,0.669-0.561,1.064-0.37c0.109,0.053,0.195,0.125,0.267,0.211c0.24-0.552,0.455-1.12,0.641-1.701
				c-0.042,0.008-0.084,0.023-0.129,0.023c-0.07,0-0.144-0.011-0.214-0.031c-0.424-0.118-0.672-0.558-0.553-0.982
				c0.068-0.245,0.129-0.489,0.185-0.734c0.099-0.431,0.529-0.701,0.956-0.602c0.116,0.026,0.218,0.08,0.307,0.148
				c0.108-0.586,0.189-1.181,0.242-1.788c-0.092,0.038-0.194,0.056-0.301,0.056C392.874,30.044,392.864,30.044,392.851,30.044z"/>
			<circle fill="#A2D4A5" cx="345.167" cy="28.75" r="3.25"/>
			<circle fill="#A2D4A5" cx="403.417" cy="28.75" r="3.25"/>
			<polyline fill="none" stroke="#A2D4A5" stroke-width="3" stroke-miterlimit="10" points="356.042,5.25 337.917,5.25 
				337.917,52.625 356.667,52.625 			"/>
			<polyline fill="none" stroke="#A2D4A5" stroke-width="3" stroke-miterlimit="10" points="393.542,52.625 411.667,52.625 
				411.667,5.25 392.917,5.25 			"/>
			<text transform="matrix(1 0 0 1 363.5 37.917)" fill="#338B42" font-family="'Oswald-Bold'" font-size="22">10</text>
		</g>
		<rect x="371.667" y="0.25" opacity="0.2" fill="#5A626B" width="43.5" height="63.5"/>
	</g>
</g>
<g id="_x35__note">
	<g>
		<g>
			<rect x="492.667" y="57.25" fill="#338B42" width="83.75" height="6.75"/>
			<rect x="492.667" fill="#45AB48" width="83.75" height="59"/>
			<path fill="#A2D4A5" d="M552.851,30.044c-0.442-0.019-0.781-0.391-0.765-0.832c0.011-0.252,0.018-0.506,0.018-0.763
				c0-0.44,0.355-0.798,0.798-0.798c0.122,0,0.231,0.03,0.333,0.079c-0.019-0.458-0.053-0.917-0.104-1.365
				c-0.094,0.062-0.197,0.107-0.314,0.127c-0.042,0.005-0.087,0.009-0.127,0.009c-0.385,0-0.723-0.278-0.787-0.673
				c-0.039-0.251-0.086-0.503-0.133-0.75c-0.09-0.433,0.189-0.852,0.621-0.941c0.117-0.022,0.23-0.014,0.34,0.011
				c-0.145-0.592-0.316-1.17-0.52-1.736c-0.076,0.08-0.168,0.15-0.279,0.196c-0.097,0.038-0.197,0.056-0.295,0.056
				c-0.318,0-0.617-0.192-0.742-0.503c-0.092-0.233-0.193-0.465-0.297-0.697c-0.184-0.399-0.006-0.872,0.395-1.056
				c0.105-0.048,0.219-0.069,0.329-0.069c-0.271-0.537-0.567-1.059-0.89-1.562c-0.057,0.092-0.131,0.175-0.226,0.244
				c-0.139,0.096-0.298,0.141-0.454,0.141c-0.254,0-0.502-0.12-0.656-0.34c-0.147-0.211-0.295-0.418-0.449-0.619
				c-0.268-0.353-0.199-0.85,0.151-1.117c0.093-0.074,0.197-0.119,0.305-0.141c-0.385-0.463-0.792-0.905-1.219-1.328
				c-0.034,0.104-0.086,0.203-0.166,0.288c-0.158,0.173-0.374,0.262-0.59,0.262c-0.191,0-0.384-0.067-0.537-0.208
				c-0.188-0.17-0.383-0.336-0.577-0.502c-0.338-0.282-0.383-0.785-0.1-1.125c0.074-0.088,0.165-0.153,0.261-0.2
				c-0.474-0.365-0.967-0.71-1.479-1.028c-0.01,0.111-0.04,0.22-0.097,0.324c-0.147,0.257-0.417,0.401-0.695,0.401
				c-0.134,0-0.269-0.033-0.391-0.104c-0.221-0.125-0.445-0.244-0.671-0.36c-0.394-0.199-0.552-0.678-0.352-1.072
				c0.053-0.103,0.128-0.188,0.213-0.257c-0.544-0.25-1.104-0.474-1.676-0.669c0.016,0.108,0.011,0.22-0.021,0.333
				c-0.104,0.347-0.421,0.572-0.766,0.572c-0.075,0-0.152-0.008-0.228-0.031c-0.24-0.072-0.486-0.142-0.734-0.201
				c-0.429-0.106-0.689-0.539-0.582-0.966c0.028-0.116,0.084-0.219,0.156-0.307c-0.588-0.12-1.188-0.213-1.795-0.276
				c0.043,0.105,0.067,0.218,0.059,0.342c-0.028,0.423-0.376,0.747-0.793,0.747c-0.019,0-0.035,0-0.052,0
				c-0.252-0.017-0.506-0.025-0.76-0.029c-0.441-0.008-0.792-0.373-0.785-0.813c0.002-0.121,0.035-0.232,0.084-0.333
				c-0.609,0.013-1.212,0.056-1.806,0.128c0.062,0.093,0.111,0.196,0.128,0.315c0.07,0.434-0.225,0.843-0.66,0.916
				c-0.252,0.04-0.501,0.087-0.749,0.139c-0.054,0.01-0.11,0.018-0.163,0.018c-0.371,0-0.702-0.26-0.782-0.638
				c-0.023-0.114-0.016-0.23,0.01-0.338c-0.591,0.146-1.169,0.321-1.733,0.528c0.081,0.078,0.151,0.169,0.196,0.279
				c0.167,0.407-0.031,0.875-0.44,1.04c-0.233,0.097-0.465,0.198-0.693,0.301c-0.109,0.05-0.223,0.076-0.336,0.076
				c-0.3,0-0.59-0.172-0.723-0.463c-0.05-0.106-0.069-0.216-0.07-0.327c-0.535,0.273-1.056,0.576-1.559,0.9
				c0.094,0.053,0.179,0.126,0.246,0.225c0.253,0.36,0.168,0.854-0.193,1.108c-0.208,0.146-0.414,0.298-0.614,0.453
				c-0.145,0.114-0.317,0.166-0.486,0.166c-0.238,0-0.476-0.105-0.634-0.309c-0.07-0.094-0.116-0.195-0.141-0.301
				c-0.459,0.387-0.9,0.796-1.318,1.225c0.103,0.033,0.202,0.086,0.287,0.165c0.329,0.294,0.354,0.799,0.06,1.125
				c-0.169,0.191-0.336,0.384-0.499,0.578c-0.156,0.194-0.385,0.291-0.616,0.291c-0.178,0-0.358-0.058-0.505-0.18
				c-0.092-0.074-0.158-0.166-0.208-0.265c-0.363,0.477-0.703,0.974-1.018,1.486c0.11,0.012,0.22,0.038,0.326,0.096
				c0.383,0.216,0.52,0.705,0.305,1.087c-0.123,0.221-0.241,0.445-0.356,0.674c-0.139,0.281-0.422,0.442-0.714,0.442
				c-0.119,0-0.241-0.029-0.356-0.083c-0.104-0.053-0.19-0.128-0.259-0.211c-0.246,0.543-0.467,1.104-0.659,1.679
				c0.106-0.017,0.22-0.014,0.332,0.016c0.425,0.124,0.67,0.566,0.549,0.988c-0.07,0.245-0.136,0.49-0.196,0.738
				c-0.089,0.367-0.415,0.611-0.775,0.611c-0.062,0-0.126-0.004-0.188-0.021c-0.117-0.03-0.217-0.084-0.305-0.155
				c-0.117,0.586-0.206,1.183-0.266,1.783c0.106-0.04,0.22-0.063,0.34-0.047c0.441,0.025,0.776,0.399,0.751,0.843
				c-0.015,0.251-0.022,0.503-0.026,0.759c-0.004,0.438-0.362,0.789-0.798,0.789c-0.002,0-0.006,0-0.009,0
				c-0.12-0.003-0.23-0.033-0.331-0.082c0.015,0.609,0.063,1.211,0.138,1.805c0.092-0.063,0.195-0.108,0.311-0.128
				c0.443-0.074,0.848,0.216,0.922,0.649c0.043,0.253,0.092,0.502,0.146,0.751c0.091,0.434-0.182,0.856-0.613,0.949
				c-0.057,0.013-0.114,0.018-0.169,0.018c-0.062,0-0.119-0.018-0.178-0.03c0.153,0.59,0.335,1.17,0.546,1.736
				c0.076-0.083,0.167-0.155,0.278-0.201c0.409-0.166,0.875,0.027,1.043,0.433c0.096,0.236,0.198,0.465,0.306,0.694
				c0.188,0.399,0.016,0.875-0.384,1.062c-0.104,0.05-0.217,0.072-0.327,0.072c0.279,0.534,0.583,1.055,0.91,1.555
				c0.057-0.096,0.129-0.181,0.226-0.251c0.359-0.254,0.857-0.168,1.112,0.191c0.147,0.206,0.297,0.41,0.455,0.607
				c0.271,0.347,0.211,0.849-0.135,1.122c-0.094,0.072-0.199,0.113-0.306,0.138c0.388,0.46,0.801,0.899,1.234,1.315
				c0.033-0.103,0.085-0.204,0.162-0.292c0.293-0.327,0.799-0.355,1.127-0.063c0.19,0.168,0.384,0.334,0.58,0.492
				c0.341,0.28,0.395,0.784,0.115,1.124c-0.073,0.092-0.167,0.161-0.265,0.208c0.48,0.362,0.981,0.701,1.499,1.012
				c0.008-0.111,0.036-0.222,0.094-0.327c0.213-0.385,0.699-0.526,1.083-0.314c0.222,0.125,0.448,0.241,0.676,0.355
				c0.396,0.195,0.559,0.673,0.363,1.068c-0.051,0.104-0.129,0.19-0.214,0.26c0.55,0.243,1.114,0.46,1.692,0.649
				c-0.018-0.112-0.018-0.225,0.017-0.34c0.12-0.424,0.567-0.669,0.986-0.548c0.241,0.07,0.486,0.133,0.733,0.191
				c0.429,0.1,0.695,0.531,0.595,0.958c-0.028,0.118-0.086,0.219-0.158,0.307c0.59,0.113,1.19,0.2,1.8,0.254
				c-0.043-0.103-0.066-0.216-0.061-0.334c0.02-0.443,0.418-0.783,0.835-0.759c0.251,0.012,0.506,0.019,0.763,0.021
				c0.44,0,0.796,0.362,0.793,0.802c-0.001,0.121-0.033,0.229-0.079,0.333c0.612-0.021,1.214-0.073,1.808-0.15
				c-0.063-0.093-0.116-0.194-0.137-0.312c-0.077-0.436,0.214-0.848,0.647-0.924c0.251-0.045,0.5-0.096,0.749-0.147
				c0.426-0.099,0.856,0.172,0.95,0.606c0.026,0.116,0.021,0.23-0.002,0.341c0.587-0.158,1.165-0.341,1.728-0.556
				c-0.084-0.075-0.158-0.162-0.202-0.271c-0.173-0.406,0.016-0.875,0.423-1.045c0.234-0.1,0.464-0.207,0.693-0.314
				c0.396-0.188,0.874-0.019,1.064,0.377c0.051,0.107,0.072,0.216,0.074,0.328c0.537-0.282,1.054-0.59,1.558-0.923
				c-0.097-0.056-0.188-0.124-0.257-0.219c-0.26-0.354-0.178-0.855,0.178-1.112c0.207-0.151,0.409-0.304,0.608-0.461
				c0.347-0.275,0.848-0.216,1.121,0.128c0.074,0.094,0.118,0.195,0.146,0.299c0.455-0.392,0.891-0.807,1.307-1.241
				c-0.105-0.032-0.206-0.08-0.292-0.158c-0.332-0.289-0.367-0.792-0.076-1.125c0.167-0.192,0.331-0.387,0.492-0.586
				c0.277-0.345,0.779-0.398,1.124-0.124c0.091,0.076,0.158,0.166,0.209,0.265c0.357-0.482,0.689-0.987,0.998-1.504
				c-0.109-0.008-0.22-0.032-0.322-0.089c-0.389-0.21-0.533-0.694-0.322-1.082c0.12-0.224,0.236-0.451,0.348-0.68
				c0.193-0.395,0.669-0.561,1.064-0.37c0.109,0.053,0.195,0.125,0.267,0.211c0.24-0.552,0.454-1.12,0.641-1.701
				c-0.042,0.008-0.084,0.023-0.13,0.023c-0.07,0-0.144-0.011-0.214-0.031c-0.424-0.118-0.673-0.558-0.554-0.982
				c0.068-0.245,0.13-0.489,0.186-0.734c0.099-0.431,0.529-0.701,0.955-0.602c0.116,0.026,0.219,0.08,0.308,0.148
				c0.108-0.586,0.189-1.181,0.241-1.788c-0.092,0.038-0.193,0.056-0.301,0.056C552.874,30.044,552.864,30.044,552.851,30.044z"/>
			<circle fill="#A2D4A5" cx="505.167" cy="28.75" r="3.25"/>
			<circle fill="#A2D4A5" cx="563.417" cy="28.75" r="3.25"/>
			<polyline fill="none" stroke="#A2D4A5" stroke-width="3" stroke-miterlimit="10" points="516.042,5.25 497.917,5.25 
				497.917,52.625 516.667,52.625 			"/>
			<polyline fill="none" stroke="#A2D4A5" stroke-width="3" stroke-miterlimit="10" points="553.542,52.625 571.667,52.625 
				571.667,5.25 552.917,5.25 			"/>
			<text transform="matrix(1 0 0 1 530.5 37.917)" fill="#338B42" font-family="'Oswald-Bold'" font-size="22">5</text>
		</g>
		<rect x="531.667" y="0.25" opacity="0.2" fill="#5A626B" width="43.5" height="63.5"/>
	</g>
</g>
<g id="Pound_Coin">
	<g>
		<g>
			<circle fill="#D4C629" cx="48.421" cy="222.823" r="19.652"/>
			<path fill="#BCB032" d="M52.941,210.002c8.185,3.505,12.188,12.69,9.387,20.984c0.208-0.396,0.406-0.801,0.586-1.22
				c3.684-8.604-0.304-18.566-8.908-22.25c-8.604-3.684-18.565,0.304-22.25,8.908c-0.18,0.418-0.335,0.841-0.479,1.266
				C35.347,209.939,44.756,206.497,52.941,210.002z"/>
			<g>
				<path fill="#EADA16" d="M48.421,206.777c8.848,0,16.046,7.198,16.046,16.046s-7.198,16.045-16.046,16.045
					s-16.045-7.198-16.045-16.045S39.573,206.777,48.421,206.777 M48.421,203.171c-10.853,0-19.651,8.798-19.651,19.652
					c0,10.853,8.798,19.651,19.651,19.651c10.854,0,19.652-8.798,19.652-19.651C68.073,211.97,59.274,203.171,48.421,203.171
					L48.421,203.171z"/>
			</g>
			<text transform="matrix(1 0 0 1 42.8325 231.8384)" fill="#ABA234" font-family="'Oswald-Bold'" font-size="23.0771">£</text>
		</g>
		<g>
			<circle fill="#D4C629" cx="31.978" cy="215.232" r="19.652"/>
			<path fill="#BCB032" d="M32.812,202.39c8.863,0.859,15.461,8.4,15.305,17.152c0.078-0.44,0.145-0.887,0.189-1.34
				c0.903-9.316-5.917-17.601-15.233-18.504c-9.315-0.903-17.6,5.917-18.503,15.232c-0.044,0.453-0.064,0.903-0.073,1.351
				C16.026,207.663,23.95,201.53,32.812,202.39z"/>
			<g>
				<path fill="#EADA16" d="M31.983,199.181L31.983,199.181c7.015,0,13.157,4.497,15.286,11.188
					c2.681,8.432-1.997,17.473-10.428,20.154c-1.585,0.504-3.223,0.76-4.868,0.76c-7.016,0-13.159-4.497-15.287-11.188
					c-2.681-8.432,1.997-17.473,10.429-20.154C28.7,199.437,30.338,199.181,31.983,199.181 M31.982,195.575
					c-1.973,0-3.98,0.299-5.96,0.929c-10.343,3.289-16.061,14.34-12.772,24.683c2.659,8.362,10.392,13.701,18.723,13.701
					c1.973,0,3.98-0.299,5.96-0.929c10.342-3.289,16.061-14.34,12.771-24.683C48.046,200.914,40.313,195.575,31.982,195.575
					L31.982,195.575z"/>
			</g>
			
				<text transform="matrix(0.953 -0.3031 0.3031 0.953 28.7471 225.7202)" fill="#ABA234" font-family="'Oswald-Bold'" font-size="23.0771">1</text>
		</g>
		<g>
			<circle fill="#D4C629" cx="40.091" cy="237.408" r="19.652"/>
			<path fill="#BCB032" d="M45.782,225.757c8.185,3.505,12.188,12.691,9.387,20.984c0.208-0.396,0.406-0.802,0.585-1.22
				c3.685-8.604-0.304-18.566-8.908-22.25c-8.604-3.684-18.566,0.304-22.25,8.908c-0.18,0.418-0.335,0.842-0.479,1.266
				C28.187,225.694,37.596,222.252,45.782,225.757z"/>
			<g>
				<path fill="#EADA16" d="M40.09,221.362c8.848,0,16.046,7.198,16.046,16.046s-7.198,16.045-16.046,16.045
					s-16.045-7.198-16.045-16.045S31.243,221.362,40.09,221.362 M40.09,217.756c-10.853,0-19.651,8.798-19.651,19.652
					c0,10.853,8.798,19.651,19.651,19.651c10.854,0,19.652-8.798,19.652-19.651C59.742,226.554,50.944,217.756,40.09,217.756
					L40.09,217.756z"/>
			</g>
			<text transform="matrix(1 0 0 1 33.1646 246.4233)" fill="#ABA234" font-family="'Oswald-Bold'" font-size="23.0771">1</text>
		</g>
	</g>
	<g>
		<defs>
			<path id="SVGID_1_" d="M68.128,222.812c0-10.853-8.798-19.651-19.652-19.651c-0.328,0-0.654,0.009-0.978,0.025
				c-3.596-4.626-9.208-7.605-15.521-7.605c-10.854,0-19.651,8.798-19.651,19.651c0,6.81,3.464,12.809,8.726,16.335
				c-0.598,1.88-0.923,3.882-0.923,5.96c0,10.854,8.798,19.652,19.652,19.652c10.297,0,18.74-7.922,19.578-18.004
				C64.644,235.653,68.128,229.64,68.128,222.812z"/>
		</defs>
		<clipPath id="SVGID_2_">
			<use xlink:href="#SVGID_1_"  overflow="visible"/>
		</clipPath>
		<rect x="36.309" y="195.531" opacity="0.2" clip-path="url(#SVGID_2_)" fill="#5A626B" width="35.115" height="62.203"/>
	</g>
</g>
<g id="_x32__pound_coin">
	<g>
		<g>
			<circle fill="#D4C629" cx="204.157" cy="222.515" r="19.508"/>
			<path fill="#BCB032" d="M208.644,209.788c8.125,3.479,12.099,12.598,9.318,20.831c0.207-0.394,0.403-0.796,0.582-1.211
				c3.657-8.541-0.302-18.431-8.843-22.088c-8.541-3.657-18.43,0.302-22.087,8.843c-0.179,0.415-0.333,0.835-0.476,1.256
				C191.178,209.725,200.519,206.308,208.644,209.788z"/>
			<g>
				<path fill="#EADA16" d="M204.157,206.586c8.783,0,15.928,7.146,15.928,15.928s-7.146,15.928-15.928,15.928
					s-15.928-7.146-15.928-15.928S195.375,206.586,204.157,206.586 M204.157,203.007c-10.774,0-19.508,8.734-19.508,19.508
					s8.734,19.508,19.508,19.508s19.508-8.734,19.508-19.508S214.931,203.007,204.157,203.007L204.157,203.007z"/>
			</g>
			<text transform="matrix(1 0 0 1 199.9355 230.5771)" fill="#ABA234" font-family="'Oswald-Bold'" font-size="18.5908">2</text>
			<circle opacity="0.4" fill="#FFFFFF" cx="204.076" cy="222.828" r="10.434"/>
		</g>
		<g>
			<circle fill="#D4C629" cx="187.834" cy="214.979" r="19.508"/>
			<path fill="#BCB032" d="M188.662,202.231c8.798,0.853,15.348,8.339,15.193,17.027c0.078-0.438,0.144-0.881,0.188-1.33
				c0.896-9.248-5.874-17.472-15.122-18.369c-9.247-0.896-17.471,5.874-18.368,15.121c-0.044,0.45-0.064,0.897-0.072,1.341
				C171.999,207.465,179.865,201.377,188.662,202.231z"/>
			<g>
				<path fill="#EADA16" d="M187.841,195.466v3.58h0c6.962,0,13.06,4.463,15.172,11.106c2.662,8.37-1.982,17.345-10.352,20.007
					c-1.574,0.5-3.2,0.754-4.832,0.754c-6.964,0-13.062-4.463-15.175-11.107c-1.29-4.054-0.923-8.368,1.033-12.147
					c1.955-3.779,5.265-6.57,9.32-7.859c1.574-0.5,3.2-0.754,4.833-0.754L187.841,195.466 M187.839,195.466
					c-1.958,0-3.952,0.297-5.917,0.923c-10.268,3.265-15.944,14.235-12.679,24.502c2.64,8.302,10.316,13.602,18.586,13.602
					c1.958,0,3.951-0.298,5.917-0.923c10.267-3.265,15.943-14.235,12.678-24.503C203.784,200.765,196.109,195.465,187.839,195.466
					L187.839,195.466z"/>
			</g>
			
				<text transform="matrix(0.953 -0.3031 0.3031 0.953 185.2905 224.063)" fill="#ABA234" font-family="'Oswald-Bold'" font-size="18.5908">2</text>
			<circle opacity="0.4" fill="#FFFFFF" cx="188.363" cy="215.746" r="10.434"/>
		</g>
		<g>
			<circle fill="#D4C629" cx="195.888" cy="236.992" r="19.508"/>
			<circle opacity="0.4" fill="#FFFFFF" cx="195.887" cy="237.656" r="10.434"/>
			<path fill="#BCB032" d="M201.537,225.427c8.125,3.479,12.099,12.598,9.318,20.831c0.207-0.394,0.403-0.796,0.581-1.211
				c3.658-8.541-0.302-18.431-8.843-22.088c-8.541-3.657-18.43,0.302-22.087,8.843c-0.178,0.416-0.333,0.836-0.475,1.257
				C184.071,225.365,193.412,221.948,201.537,225.427z"/>
			<g>
				<path fill="#EADA16" d="M195.887,221.064c8.783,0,15.929,7.146,15.929,15.928s-7.146,15.928-15.929,15.928
					c-8.783,0-15.928-7.146-15.928-15.928S187.104,221.064,195.887,221.064 M195.887,217.484c-10.773,0-19.507,8.734-19.507,19.508
					s8.734,19.508,19.507,19.508c10.774,0,19.508-8.734,19.508-19.508S206.662,217.484,195.887,217.484L195.887,217.484z"/>
			</g>
			<text transform="matrix(1 0 0 1 191.0029 245.2764)" fill="#ABA234" font-family="'Oswald-Bold'" font-size="18.5908">2</text>
		</g>
	</g>
	<g>
		<defs>
			<path id="SVGID_3_" d="M224.383,222.282c0-10.774-8.734-19.508-19.507-19.508c-0.326,0-0.649,0.009-0.971,0.025
				c-3.569-4.592-9.141-7.55-15.407-7.55c-10.774,0-19.508,8.734-19.508,19.508c0,6.76,3.439,12.715,8.663,16.216
				c-0.593,1.866-0.916,3.853-0.916,5.916c0,10.774,8.734,19.508,19.508,19.508c10.223,0,18.603-7.864,19.435-17.872
				C220.925,235.029,224.383,229.06,224.383,222.282z"/>
		</defs>
		<clipPath id="SVGID_4_">
			<use xlink:href="#SVGID_3_"  overflow="visible"/>
		</clipPath>
		<rect x="192.797" y="195.201" opacity="0.2" clip-path="url(#SVGID_4_)" fill="#5A626B" width="34.858" height="61.749"/>
	</g>
</g>
<g id="_x35_0p_Coin">
	<g>
		<g>
			<g>
				<polygon fill="#A9B6C1" points="33.362,411.94 22.904,396.437 28.507,378.593 45.95,371.847 62.1,381.28 64.794,399.788 
					52.005,413.433 				"/>
				<polyline fill="#7B94A3" points="28.203,385.28 45.646,378.535 61.796,387.967 63.398,400.011 63.893,399.484 61.998,385.438 
					45.849,376.005 28.405,382.75 				"/>
				<g>
					<path fill="#8CA6B9" d="M45.583,376.441l12.696,7.416l2.118,14.55l-10.054,10.727l-14.656-1.173l-8.221-12.188l4.404-14.028
						L45.583,376.441 M45.95,371.847l-17.443,6.746l-5.603,17.844l10.458,15.504l18.643,1.492l12.79-13.645L62.1,381.28
						L45.95,371.847L45.95,371.847z"/>
				</g>
				
					<text transform="matrix(0.9968 0.0797 -0.0797 0.9968 33.4463 400.2979)" fill="#7B94A3" font-family="'Oswald-Bold'" font-size="19.3791">50</text>
			</g>
		</g>
		<g>
			<g>
				<polygon fill="#A9B6C1" points="34.057,401.586 17.975,392.041 15.412,373.515 28.297,359.959 46.929,361.582 57.277,377.162 
					51.548,394.964 				"/>
				<polyline fill="#7B94A3" points="17.996,379.69 30.881,366.135 49.513,367.758 56.111,377.96 56.332,377.272 48.615,365.384 
					29.983,363.761 17.097,377.316 				"/>
				<g>
					<path fill="#8CA6B9" d="M29.929,364.27l14.648,1.275l8.135,12.248l-4.504,13.995l-13.751,5.206l-12.643-7.503l-2.015-14.564
						L29.929,364.27 M28.297,359.959l-12.885,13.555l2.563,18.526l16.082,9.545l17.491-6.622l5.729-17.802l-10.348-15.58
						L28.297,359.959L28.297,359.959z"/>
				</g>
				
					<text transform="matrix(0.9352 -0.3541 0.3541 0.9352 29.1572 391.0244)" fill="#7B94A3" font-family="'Oswald-Bold'" font-size="19.3791">50</text>
			</g>
		</g>
		<g>
			<g>
				<polygon fill="#A9B6C1" points="19.97,419.904 8.309,405.283 12.471,387.049 29.321,378.935 46.171,387.049 50.333,405.283 
					38.672,419.904 				"/>
				<polyline fill="#7B94A3" points="12.701,393.74 29.552,385.625 46.402,393.74 48.959,405.617 49.41,405.052 46.402,391.202 
					29.552,383.087 12.701,391.202 				"/>
				<g>
					<path fill="#8CA6B9" d="M29.321,383.543l13.247,6.379l3.271,14.334l-9.167,11.494H21.969l-9.167-11.494l3.271-14.334
						L29.321,383.543 M29.321,378.935l-16.851,8.114l-4.162,18.234l11.661,14.621h18.703l11.661-14.621l-4.162-18.234
						L29.321,378.935L29.321,378.935z"/>
				</g>
				<text transform="matrix(1 0 0 1 19.126 408.292)" fill="#7B94A3" font-family="'Oswald-Bold'" font-size="19.3791">50</text>
			</g>
		</g>
	</g>
	<g>
		<defs>
			<path id="SVGID_5_" d="M95.758,402.297c0-16.227-13.154-29.381-29.381-29.381c-0.49,0-0.978,0.013-1.462,0.037
				c-5.375-6.916-13.768-11.371-23.205-11.371c-16.227,0-29.381,13.154-29.381,29.381c0,10.181,5.18,19.151,13.046,24.423
				c-0.894,2.811-1.379,5.803-1.379,8.91c0,16.227,13.154,29.381,29.381,29.381c15.396,0,28.018-11.844,29.271-26.916
				C90.549,421.496,95.758,412.506,95.758,402.297z"/>
		</defs>
		<clipPath id="SVGID_6_">
			<use xlink:href="#SVGID_5_"  overflow="visible"/>
		</clipPath>
	</g>
</g>
<g id="_x32_0p_coin">
	<g>
		<g>
			<g>
				<polygon fill="#A9B6C1" points="195.083,410.354 184.742,395.023 190.282,377.377 207.532,370.707 223.502,380.035 
					226.167,398.337 213.519,411.829 				"/>
				<polyline fill="#7B94A3" points="189.981,383.99 207.231,377.32 223.201,386.647 224.786,398.557 225.275,398.036 
					223.401,384.146 207.431,374.819 190.182,381.489 				"/>
				<g>
					<path fill="#8CA6B9" d="M207.168,375.25l12.555,7.333l2.095,14.388l-9.942,10.606l-14.494-1.159l-8.13-12.053l4.356-13.873
						L207.168,375.25 M207.532,370.707l-17.25,6.67l-5.541,17.646l10.342,15.332l18.436,1.474l12.647-13.492l-2.665-18.302
						L207.532,370.707L207.532,370.707z"/>
				</g>
				
					<text transform="matrix(0.9968 0.0797 -0.0797 0.9968 195.168 398.8418)" fill="#7B94A3" font-family="'Oswald-Bold'" font-size="19.1636">50</text>
			</g>
		</g>
		<g>
			<g>
				<polygon fill="#A9B6C1" points="195.771,400.115 179.868,390.676 177.333,372.355 190.075,358.952 208.5,360.556 
					218.733,375.962 213.067,393.566 				"/>
				<polyline fill="#7B94A3" points="179.888,378.463 192.63,365.058 211.055,366.663 217.58,376.751 217.798,376.071 
					210.167,364.316 191.742,362.71 179,376.115 				"/>
				<g>
					<path fill="#8CA6B9" d="M191.688,363.214l14.484,1.261l8.045,12.112l-4.454,13.839l-13.598,5.148l-12.502-7.421l-1.993-14.403
						L191.688,363.214 M190.075,358.952l-12.742,13.403l2.535,18.321l15.903,9.439l17.296-6.549l5.666-17.604L208.5,360.556
						L190.075,358.952L190.075,358.952z"/>
				</g>
				
					<text transform="matrix(0.9352 -0.3541 0.3541 0.9352 190.9258 389.6714)" fill="#7B94A3" font-family="'Oswald-Bold'" font-size="19.1636">20</text>
			</g>
		</g>
		<g>
			<g>
				<polygon fill="#A9B6C1" points="181.84,418.229 170.309,403.771 174.425,385.74 191.087,377.715 207.75,385.74 211.866,403.771 
					200.335,418.229 				"/>
				<polyline fill="#7B94A3" points="174.652,392.355 191.315,384.331 207.978,392.355 210.508,404.101 210.953,403.542 
					207.978,389.846 191.315,381.822 174.652,389.846 				"/>
				<g>
					<path fill="#8CA6B9" d="M191.087,382.273l13.1,6.308l3.235,14.175l-9.065,11.366h-14.54l-9.065-11.366l3.235-14.175
						L191.087,382.273 M191.087,377.715l-16.663,8.024l-4.116,18.031l11.531,14.458h18.495l11.531-14.458l-4.115-18.031
						L191.087,377.715L191.087,377.715z"/>
				</g>
				<text transform="matrix(1 0 0 1 181.0068 406.7471)" fill="#7B94A3" font-family="'Oswald-Bold'" font-size="19.1636">20</text>
			</g>
		</g>
	</g>
	<g>
		<defs>
			<path id="SVGID_7_" d="M257.758,401.29c0-16.227-13.154-29.381-29.381-29.381c-0.49,0-0.978,0.013-1.462,0.037
				c-5.375-6.916-13.768-11.371-23.205-11.371c-16.227,0-29.381,13.154-29.381,29.381c0,10.182,5.18,19.15,13.046,24.423
				c-0.894,2.812-1.379,5.804-1.379,8.911c0,16.227,13.154,29.381,29.381,29.381c15.396,0,28.018-11.844,29.271-26.918
				C252.549,420.487,257.758,411.498,257.758,401.29z"/>
		</defs>
		<clipPath id="SVGID_8_">
			<use xlink:href="#SVGID_7_"  overflow="visible"/>
		</clipPath>
	</g>
</g>
<g id="_x31_0p">
	<g>
		<g>
			<circle fill="#A9B6C1" cx="31.383" cy="547.138" r="19.925"/>
			<path fill="#7B94A3" d="M30.191,534.043c8.939-1.263,17.239,4.596,19.171,13.259c-0.028-0.453-0.069-0.909-0.133-1.364
				c-1.33-9.396-10.025-15.938-19.422-14.607c-9.396,1.329-15.937,10.024-14.606,19.421c0.064,0.457,0.152,0.905,0.25,1.349
				C14.904,543.242,21.252,535.309,30.191,534.043z"/>
			<g>
				<g>
					<path fill="#8CA6B9" d="M31.365,531.278L31.365,531.278c5.601,0,10.676,2.855,13.576,7.638
						c4.534,7.475,2.14,17.245-5.336,21.779c-2.482,1.506-5.319,2.301-8.203,2.301c-5.602,0-10.678-2.854-13.578-7.637
						c-2.196-3.621-2.851-7.881-1.843-11.995c1.008-4.113,3.557-7.588,7.178-9.784C25.643,532.074,28.48,531.278,31.365,531.278
						 M31.364,527.209c-3.52,0.001-7.084,0.934-10.314,2.892c-9.409,5.706-12.411,17.96-6.705,27.369
						c3.748,6.18,10.321,9.596,17.057,9.596c3.519,0,7.084-0.933,10.312-2.891c9.41-5.707,12.411-17.961,6.705-27.369
						C44.672,530.625,38.1,527.209,31.364,527.209L31.364,527.209z"/>
				</g>
			</g>
			<g>
				
					<text transform="matrix(0.8551 -0.5185 0.5185 0.8551 26.6387 560.7061)" fill="#7B94A3" font-family="'Oswald-Bold'" font-size="18.9889">10</text>
			</g>
		</g>
		<g>
			<circle fill="#A9B6C1" cx="48.337" cy="555.615" r="19.926"/>
			<path fill="#7B94A3" d="M57.075,545.791c7.035,5.657,8.437,15.72,3.437,23.054c0.312-0.331,0.615-0.672,0.905-1.031
				c5.947-7.395,4.772-18.213-2.624-24.159c-7.396-5.947-18.213-4.772-24.159,2.624c-0.29,0.36-0.557,0.73-0.813,1.104
				C39.91,540.926,50.039,540.134,57.075,545.791z"/>
			<g>
				<g>
					<path fill="#8CA6B9" d="M48.327,535.685v4.069c1.438,0,2.877,0.198,4.28,0.591c4.079,1.14,7.469,3.8,9.547,7.49
						c2.078,3.691,2.594,7.971,1.454,12.05c-1.908,6.825-8.184,11.592-15.261,11.592c-1.438,0-2.878-0.199-4.279-0.591
						c-8.42-2.354-13.355-11.12-11.001-19.54c1.908-6.825,8.183-11.592,15.259-11.592L48.327,535.685 M48.325,535.685
						c-8.713,0.001-16.716,5.762-19.178,14.565c-2.963,10.598,3.226,21.591,13.825,24.555c1.794,0.502,3.599,0.74,5.375,0.74
						c8.714,0,16.718-5.761,19.18-14.564c2.963-10.6-3.227-21.593-13.825-24.555C51.907,535.924,50.102,535.685,48.325,535.685
						L48.325,535.685z"/>
				</g>
			</g>
			<g>
				
					<text transform="matrix(0.9631 0.2693 -0.2693 0.9631 35.1938 561.4316)" fill="#7B94A3" font-family="'Oswald-Bold'" font-size="18.9889">10</text>
			</g>
		</g>
		<g>
			<circle fill="#A9B6C1" cx="40.199" cy="569.855" r="19.926"/>
			<path fill="#7B94A3" d="M45.969,558.044c8.299,3.553,12.357,12.866,9.518,21.275c0.211-0.402,0.412-0.812,0.594-1.237
				c3.736-8.723-0.308-18.824-9.032-22.56c-8.724-3.734-18.825,0.308-22.56,9.033c-0.182,0.423-0.34,0.853-0.485,1.283
				C28.129,557.979,37.669,554.489,45.969,558.044z"/>
			<g>
				<g>
					<path fill="#8CA6B9" d="M40.199,554c8.744,0,15.857,7.112,15.857,15.855s-7.113,15.856-15.857,15.856
						c-8.743,0-15.856-7.113-15.856-15.856S31.456,554,40.199,554 M40.199,549.931c-11.004,0-19.925,8.921-19.925,19.925
						c0,11.005,8.921,19.926,19.925,19.926c11.005,0,19.926-8.921,19.926-19.926C60.125,558.852,51.204,549.931,40.199,549.931
						L40.199,549.931z"/>
				</g>
			</g>
			<g>
				<text transform="matrix(1 0 0 1 29.1074 578.998)" fill="#7B94A3" font-family="'Oswald-Bold'" font-size="18.9889">10</text>
			</g>
		</g>
	</g>
	<g>
		<defs>
			<path id="SVGID_9_" d="M68.627,555.056c0-11.004-8.921-19.925-19.925-19.925c-0.333,0-0.664,0.009-0.992,0.025
				c-3.646-4.69-9.337-7.711-15.737-7.711c-11.005,0-19.926,8.921-19.926,19.926c0,6.903,3.513,12.987,8.848,16.562
				c-0.606,1.906-0.936,3.938-0.936,6.043c0,11.006,8.921,19.927,19.926,19.927c10.441,0,19.001-8.034,19.851-18.255
				C65.095,568.077,68.627,561.979,68.627,555.056z"/>
		</defs>
		<clipPath id="SVGID_10_">
			<use xlink:href="#SVGID_9_"  overflow="visible"/>
		</clipPath>
		<rect x="36.364" y="527.396" opacity="0.2" clip-path="url(#SVGID_10_)" fill="#5A626B" width="35.604" height="63.07"/>
	</g>
</g>
<g id="_x35_p">
	<g>
		<g>
			<circle fill="#A9B6C1" cx="194.699" cy="549.787" r="18.575"/>
			<path fill="#7B94A3" d="M193.588,537.58c8.333-1.178,16.07,4.284,17.872,12.36c-0.026-0.423-0.065-0.848-0.125-1.272
				c-1.239-8.76-9.346-14.857-18.105-13.617c-8.759,1.239-14.856,9.345-13.616,18.104c0.06,0.427,0.142,0.845,0.233,1.258
				C179.336,546.155,185.254,538.76,193.588,537.58z"/>
			<g>
				<g>
					<path fill="#8CA6B9" d="M194.681,535.002L194.681,535.002c5.222,0,9.954,2.662,12.657,7.12
						c4.226,6.969,1.995,16.077-4.975,20.305c-2.314,1.403-4.958,2.145-7.646,2.145c-5.222,0-9.954-2.661-12.658-7.119
						c-4.227-6.97-1.996-16.078,4.974-20.305C189.348,535.744,191.992,535.003,194.681,535.002 M194.681,531.209
						c-3.281,0-6.604,0.87-9.615,2.695c-8.771,5.319-11.57,16.743-6.25,25.515c3.494,5.761,9.621,8.945,15.901,8.945
						c3.28,0,6.603-0.869,9.613-2.694c8.772-5.32,11.57-16.744,6.251-25.515C207.087,534.394,200.96,531.209,194.681,531.209
						L194.681,531.209z"/>
				</g>
			</g>
			<g>
				
					<text transform="matrix(0.8551 -0.5185 0.5185 0.8551 194.7012 559.9062)" fill="#7B94A3" font-family="'Oswald-Bold'" font-size="17.702">5</text>
			</g>
		</g>
		<g>
			<circle fill="#A9B6C1" cx="210.504" cy="557.69" r="18.575"/>
			<path fill="#7B94A3" d="M218.65,548.532c6.559,5.273,7.865,14.654,3.204,21.491c0.291-0.309,0.574-0.627,0.844-0.962
				c5.544-6.894,4.449-16.979-2.446-22.521c-6.895-5.544-16.979-4.449-22.521,2.446c-0.271,0.336-0.52,0.681-0.758,1.029
				C202.648,543.996,212.091,543.258,218.65,548.532z"/>
			<g>
				<g>
					<path fill="#8CA6B9" d="M210.493,542.903L210.493,542.903c1.341,0,2.683,0.186,3.991,0.551c3.802,1.062,6.963,3.543,8.9,6.983
						c1.938,3.44,2.418,7.43,1.355,11.232c-1.779,6.362-7.629,10.807-14.227,10.807c-1.341,0-2.683-0.186-3.989-0.551
						c-7.85-2.194-12.45-10.366-10.256-18.216C198.047,547.347,203.897,542.903,210.493,542.903 M210.493,539.109
						c-8.124,0.001-15.583,5.372-17.878,13.579c-2.762,9.879,3.008,20.128,12.888,22.891c1.673,0.468,3.355,0.69,5.011,0.69
						c8.124,0,15.585-5.372,17.88-13.578c2.762-9.881-3.008-20.129-12.888-22.891C213.832,539.333,212.149,539.109,210.493,539.109
						L210.493,539.109z"/>
				</g>
			</g>
			<g>
				
					<text transform="matrix(0.9631 0.2693 -0.2693 0.9631 203.9409 564.375)" fill="#7B94A3" font-family="'Oswald-Bold'" font-size="17.702">5</text>
			</g>
		</g>
		<g>
			<circle fill="#A9B6C1" cx="202.917" cy="570.966" r="18.575"/>
			<path fill="#7B94A3" d="M208.297,559.954c7.736,3.312,11.52,11.994,8.873,19.834c0.196-0.375,0.383-0.758,0.553-1.153
				c3.483-8.132-0.287-17.549-8.42-21.031c-8.133-3.481-17.549,0.287-21.031,8.42c-0.169,0.396-0.317,0.796-0.452,1.197
				C191.666,559.895,200.56,556.641,208.297,559.954z"/>
			<g>
				<g>
					<path fill="#8CA6B9" d="M202.917,556.184c8.151,0,14.782,6.632,14.782,14.782s-6.631,14.782-14.782,14.782
						s-14.782-6.632-14.782-14.782S194.767,556.184,202.917,556.184 M202.917,552.391c-10.259,0-18.575,8.316-18.575,18.575
						s8.316,18.575,18.575,18.575s18.575-8.316,18.575-18.575S213.176,552.391,202.917,552.391L202.917,552.391z"/>
				</g>
			</g>
			<g>
				<text transform="matrix(1 0 0 1 197.0029 579.4863)" fill="#7B94A3" font-family="'Oswald-Bold'" font-size="17.702">5</text>
			</g>
		</g>
	</g>
	<g>
		<defs>
			<path id="SVGID_11_" d="M229.418,557.169c0-10.259-8.316-18.575-18.575-18.575c-0.31,0-0.618,0.009-0.924,0.023
				c-3.398-4.372-8.704-7.188-14.67-7.188c-10.259,0-18.575,8.316-18.575,18.575c0,6.436,3.274,12.107,8.248,15.44
				c-0.565,1.776-0.872,3.669-0.872,5.633c0,10.26,8.316,18.576,18.575,18.576c9.733,0,17.713-7.489,18.505-17.018
				C226.126,569.308,229.418,563.623,229.418,557.169z"/>
		</defs>
		<clipPath id="SVGID_12_">
			<use xlink:href="#SVGID_11_"  overflow="visible"/>
		</clipPath>
		<rect x="199.343" y="531.383" opacity="0.2" clip-path="url(#SVGID_12_)" fill="#5A626B" width="33.191" height="58.796"/>
	</g>
</g>
<g id="_x32_p">
	<g>
		<g>
			<circle fill="#AFA286" cx="42.94" cy="723.196" r="20.807"/>
			<path fill="#5A4B35" d="M45.093,709.638c9.373,1.014,16.271,9.073,16.004,18.339c0.088-0.466,0.163-0.938,0.215-1.417
				c1.065-9.852-6.059-18.703-15.912-19.77c-9.852-1.063-18.703,6.061-19.768,15.911c-0.052,0.481-0.079,0.957-0.092,1.431
				C27.259,715.023,35.72,708.625,45.093,709.638z"/>
			<g>
				<g>
					<path fill="#9E8D45" d="M42.947,706.633L42.947,706.633c7.321,0,13.682,4.709,15.827,11.719
						c2.671,8.73-2.259,18.008-10.99,20.679c-1.583,0.484-3.215,0.729-4.851,0.729c-7.322,0-13.683-4.709-15.827-11.719
						c-1.294-4.229-0.863-8.709,1.212-12.615s5.548-6.77,9.777-8.063C39.679,706.878,41.311,706.633,42.947,706.633 M42.946,702.383
						c-2.015,0.001-4.066,0.296-6.093,0.916c-10.989,3.362-17.172,14.997-13.81,25.985c2.742,8.961,10.983,14.726,19.89,14.726
						c2.016,0,4.066-0.296,6.094-0.916c10.989-3.362,17.172-14.996,13.81-25.985C60.095,708.148,51.854,702.383,42.946,702.383
						L42.946,702.383z"/>
				</g>
			</g>
			
				<text transform="matrix(0.9562 -0.2926 0.2926 0.9562 40.2822 734.7314)" fill="#8C7A57" font-family="'Oswald-Bold'" font-size="22.6619">2</text>
		</g>
	</g>
	<g>
		<g>
			<circle fill="#AFA286" cx="24.764" cy="721.191" r="20.807"/>
			<path opacity="0.6" fill="#5A4B35" d="M26.917,707.632c9.373,1.014,16.271,9.073,16.004,18.337
				c0.088-0.465,0.163-0.938,0.215-1.416c1.065-9.853-6.059-18.704-15.912-19.768c-9.853-1.065-18.704,6.058-19.768,15.91
				c-0.052,0.479-0.079,0.957-0.093,1.431C9.082,713.019,17.543,706.617,26.917,707.632z"/>
			<g>
				<g>
					<path fill="#9E8D45" d="M24.773,700.378v4.249c7.32,0,13.68,4.71,15.824,11.72c2.67,8.729-2.26,18.006-10.99,20.678
						c-1.583,0.484-3.214,0.729-4.85,0.729c-7.323,0-13.684-4.709-15.828-11.719c-2.671-8.73,2.259-18.007,10.99-20.678
						c1.583-0.485,3.216-0.73,4.853-0.73L24.773,700.378 M24.772,700.378c-2.016,0-4.067,0.295-6.096,0.916
						c-10.989,3.362-17.172,14.994-13.81,25.984c2.741,8.96,10.983,14.725,19.891,14.725c2.016,0,4.065-0.295,6.093-0.915
						c10.989-3.363,17.171-14.997,13.81-25.984C41.919,706.143,33.679,700.377,24.772,700.378L24.772,700.378z"/>
				</g>
			</g>
			
				<text transform="matrix(0.9562 -0.2926 0.2926 0.9562 22.1055 732.7246)" fill="#8C7A57" font-family="'Oswald-Bold'" font-size="22.6619">2</text>
		</g>
	</g>
	<g>
		<g>
			<circle fill="#AFA286" cx="39.635" cy="705.02" r="20.807"/>
			<path opacity="0.6" fill="#5A4B35" d="M45.661,692.684c8.666,3.711,12.905,13.438,9.938,22.219
				c0.221-0.421,0.43-0.849,0.621-1.291c3.901-9.11-0.322-19.659-9.432-23.561c-9.11-3.9-19.658,0.323-23.558,9.433
				c-0.19,0.443-0.355,0.892-0.507,1.339C27.032,692.617,36.994,688.972,45.661,692.684z"/>
			<g>
				<g>
					<path fill="#9E8D46" d="M39.635,688.462c9.13,0,16.558,7.428,16.558,16.558c0,9.131-7.428,16.559-16.558,16.559
						s-16.558-7.428-16.558-16.559C23.077,695.89,30.505,688.462,39.635,688.462 M39.635,684.213
						c-11.492,0-20.807,9.315-20.807,20.807s9.315,20.808,20.807,20.808s20.807-9.316,20.807-20.808S51.127,684.213,39.635,684.213
						L39.635,684.213z"/>
				</g>
			</g>
			<text transform="matrix(1 0 0 1 33.7188 715.2725)" fill="#8C7A57" font-family="'Oswald-Bold'" font-size="22.6619">2</text>
		</g>
	</g>
	<g>
		<defs>
			<path id="SVGID_13_" d="M62.601,717.346c-0.651-2.126-1.614-4.071-2.82-5.803c1.167-3.826,1.245-8.026-0.013-12.137
				c-3.361-10.991-14.995-17.173-25.984-13.81c-7.531,2.304-12.803,8.491-14.294,15.696c-0.045,0.013-0.092,0.024-0.137,0.037
				c-10.988,3.363-17.171,14.997-13.81,25.985s14.996,17.171,25.984,13.81c0.052-0.018,0.102-0.034,0.153-0.052
				c4.931,3.079,11.115,4.091,17.111,2.257C59.78,739.967,65.963,728.334,62.601,717.346z"/>
		</defs>
		<clipPath id="SVGID_14_">
			<use xlink:href="#SVGID_13_"  overflow="visible"/>
		</clipPath>
		<rect x="34.097" y="680.393" opacity="0.2" clip-path="url(#SVGID_14_)" fill="#5A626B" width="37.18" height="65.861"/>
	</g>
	<g>
		<defs>
			<path id="SVGID_15_" d="M68.967,713.29c0-11.491-9.316-20.809-20.807-20.809c-0.348,0-0.692,0.012-1.035,0.027
				c-3.807-4.898-9.75-8.051-16.434-8.051c-11.492,0-20.808,9.315-20.808,20.806c0,7.21,3.668,13.562,9.239,17.296
				c-0.633,1.991-0.977,4.11-0.977,6.311c0,11.493,9.316,20.809,20.808,20.809c10.903,0,19.841-8.39,20.729-19.063
				C65.279,726.886,68.967,720.521,68.967,713.29z"/>
		</defs>
		<clipPath id="SVGID_16_">
			<use xlink:href="#SVGID_15_"  overflow="visible"/>
		</clipPath>
	</g>
</g>
<g id="_x31_p">
	<g>
		<g>
			<circle fill="#AFA286" cx="208.949" cy="725.181" r="20.8"/>
			<path fill="#5A4B35" d="M211.102,711.627c9.369,1.014,16.265,9.07,15.998,18.333c0.088-0.466,0.163-0.937,0.215-1.416
				c1.065-9.848-6.057-18.698-15.906-19.762c-9.849-1.063-18.697,6.058-19.76,15.906c-0.052,0.479-0.079,0.954-0.093,1.43
				C193.274,717.013,201.732,710.616,211.102,711.627z"/>
			<g>
				<g>
					<path fill="#9E8D45" d="M208.955,708.625L208.955,708.625c7.319,0,13.678,4.707,15.822,11.713
						c1.293,4.229,0.863,8.708-1.212,12.611c-2.075,3.904-5.545,6.766-9.774,8.06c-1.583,0.484-3.215,0.73-4.851,0.73
						c-7.318,0-13.675-4.708-15.819-11.716c-2.67-8.727,2.258-17.999,10.985-20.67C205.688,708.87,207.32,708.625,208.955,708.625
						 M208.955,704.377c-2.015,0-4.064,0.295-6.091,0.915c-10.984,3.361-17.165,14.991-13.804,25.975
						c2.741,8.958,10.977,14.72,19.88,14.72c2.015,0,4.066-0.295,6.094-0.916c10.985-3.36,17.166-14.988,13.805-25.975
						C226.098,710.14,217.859,704.377,208.955,704.377L208.955,704.377z"/>
				</g>
			</g>
			
				<text transform="matrix(0.9562 -0.2926 0.2926 0.9562 206.291 736.7139)" fill="#8C7A57" font-family="'Oswald-Bold'" font-size="22.6535">2</text>
		</g>
	</g>
	<g>
		<g>
			<circle fill="#AFA286" cx="190.78" cy="723.177" r="20.799"/>
			<path opacity="0.6" fill="#5A4B35" d="M192.932,709.623c9.369,1.013,16.265,9.07,15.998,18.331
				c0.088-0.466,0.163-0.938,0.215-1.415c1.064-9.85-6.057-18.697-15.906-19.763c-9.849-1.063-18.697,6.057-19.761,15.906
				c-0.052,0.479-0.079,0.956-0.092,1.43C175.104,715.008,183.562,708.609,192.932,709.623z"/>
			<g>
				<g>
					<path fill="#9E8D45" d="M190.788,706.619L190.788,706.619c7.318,0,13.675,4.708,15.819,11.716
						c1.293,4.228,0.863,8.706-1.212,12.609c-2.075,3.904-5.546,6.767-9.773,8.061c-1.583,0.483-3.214,0.729-4.849,0.729
						c-7.319,0-13.678-4.708-15.821-11.715c-2.67-8.728,2.258-18,10.985-20.671C187.52,706.864,189.152,706.619,190.788,706.619
						 M190.787,702.371c-2.015,0-4.065,0.296-6.093,0.916c-10.985,3.361-17.165,14.989-13.804,25.975
						c2.74,8.958,10.979,14.72,19.883,14.72c2.015,0,4.064-0.295,6.091-0.915c10.985-3.36,17.166-14.99,13.805-25.975
						C207.928,708.134,199.69,702.371,190.787,702.371L190.787,702.371z"/>
				</g>
			</g>
			
				<text transform="matrix(0.9562 -0.2926 0.2926 0.9562 188.1211 734.709)" fill="#8C7A57" font-family="'Oswald-Bold'" font-size="22.6535">1</text>
		</g>
	</g>
	<g>
	</g>
	<g>
		<g>
			<circle fill="#AFA286" cx="205.646" cy="707.013" r="20.8"/>
			<path opacity="0.6" fill="#5A4B35" d="M211.669,694.68c8.663,3.71,12.9,13.434,9.935,22.211c0.221-0.419,0.43-0.849,0.62-1.29
				c3.899-9.107-0.322-19.652-9.429-23.552c-9.106-3.898-19.65,0.322-23.549,9.429c-0.19,0.444-0.355,0.892-0.507,1.339
				C193.046,694.614,203.005,690.971,211.669,694.68z"/>
			<g>
				<g>
					<path fill="#9E8D46" d="M205.646,690.461c9.127,0,16.552,7.425,16.552,16.552c0,9.126-7.425,16.552-16.552,16.552
						c-9.126,0-16.552-7.426-16.552-16.552C189.094,697.886,196.519,690.461,205.646,690.461 M205.646,686.213
						c-11.487,0-20.799,9.312-20.799,20.8c0,11.486,9.312,20.799,20.799,20.799c11.488,0,20.8-9.312,20.8-20.799
						C226.445,695.524,217.133,686.213,205.646,686.213L205.646,686.213z"/>
				</g>
			</g>
			<text transform="matrix(1 0 0 1 199.73 717.2598)" fill="#8C7A57" font-family="'Oswald-Bold'" font-size="22.6535">1</text>
		</g>
	</g>
	<g>
		<defs>
			<path id="SVGID_17_" d="M228.603,719.333c-0.651-2.126-1.614-4.069-2.819-5.8c1.166-3.825,1.245-8.024-0.013-12.134
				c-3.361-10.985-14.989-17.165-25.975-13.804c-7.528,2.303-12.798,8.489-14.289,15.69c-0.045,0.013-0.091,0.024-0.137,0.038
				c-10.985,3.361-17.165,14.99-13.804,25.975c3.36,10.984,14.989,17.165,25.974,13.805c0.052-0.017,0.102-0.034,0.153-0.051
				c4.929,3.078,11.111,4.088,17.104,2.255C225.783,741.946,231.964,730.318,228.603,719.333z"/>
		</defs>
		<clipPath id="SVGID_18_">
			<use xlink:href="#SVGID_17_"  overflow="visible"/>
		</clipPath>
		<rect x="200.11" y="682.395" opacity="0.2" clip-path="url(#SVGID_18_)" fill="#5A626B" width="37.166" height="65.836"/>
	</g>
	<g>
		<defs>
			<path id="SVGID_19_" d="M234.967,715.279c0-11.487-9.312-20.8-20.799-20.8c-0.348,0-0.692,0.01-1.035,0.026
				c-3.806-4.896-9.747-8.048-16.428-8.048c-11.487,0-20.799,9.312-20.799,20.799c0,7.206,3.667,13.558,9.236,17.288
				c-0.633,1.99-0.977,4.109-0.977,6.309c0,11.488,9.312,20.801,20.8,20.801c10.899,0,19.834-8.386,20.721-19.056
				C231.279,728.871,234.967,722.507,234.967,715.279z"/>
		</defs>
		<clipPath id="SVGID_20_">
			<use xlink:href="#SVGID_19_"  overflow="visible"/>
		</clipPath>
	</g>
</g>
</svg>
